<?xml version="1.0" encoding="utf-8"?>
<!-- Generator: Adobe Illustrator 23.0.1, SVG Export Plug-In . SVG Version: 6.00 Build 0)  -->
<svg version="1.1" id="Layer_1" xmlns="http://www.w3.org/2000/svg" xmlns:xlink="http://www.w3.org/1999/xlink" x="0px" y="0px"
	 viewBox="0 0 512 512" style="enable-background:new 0 0 512 512;" xml:space="preserve">
<style type="text/css">
	.st0{fill:#E8E9F3;}
	.st1{fill:#2364AA;}
</style>
<path class="st0" d="M462,512H50c-27.6,0-50-22.4-50-50V50C0,22.4,22.4,0,50,0h412c27.6,0,50,22.4,50,50v412
	C512,489.6,489.6,512,462,512z"/>
<g>
	<g>
		<path d="M179.5,429.3l58.3,58.3c10.1,10,25.8,11.2,37.1,2.9l29.9-22.3L199,362.4l-22.3,29.9C168.3,403.5,169.5,419.3,179.5,429.3z
			"/>
		<path d="M265.7,321.5l-20.4,14l86.3,86.3l14-20.4c1.3-1.9,1.1-4.4-0.6-6l-73.3-73.3C270.1,320.4,267.5,320.2,265.7,321.5z"/>
		<path d="M214.5,324.7l-16.6,16.6c-1.8,1.8-1.8,4.8,0,6.7L319,469.1c1.9,1.9,4.9,1.9,6.7,0l16.6-16.6c1.8-1.8,1.8-4.8,0-6.7
			L221.2,324.8C219.4,322.9,216.4,322.9,214.5,324.7z"/>
		<path d="M392.2,176.6L362.4,199l105.8,105.8l22.3-29.9c8.4-11.3,7.1-27-2.9-37.1l-58.3-58.3C419.3,169.5,403.5,168.3,392.2,176.6z
			"/>
		<path d="M322.1,271.7l73.3,73.3c1.6,1.6,4.2,1.9,6,0.6l20.4-14l-86.3-86.3l-14,20.4C320.2,267.5,320.4,270.1,322.1,271.7z"/>
		<path d="M324.8,221.2l121.1,121.1c1.9,1.9,4.9,1.9,6.7,0l16.6-16.6c1.8-1.8,1.8-4.8,0-6.7L348.1,197.9c-1.9-1.9-4.9-1.9-6.7,0
			l-16.6,16.6C322.9,216.4,322.9,219.4,324.8,221.2z"/>
		<g>
			<path d="M169.1,386.7l16.7-22.3c-23-6.5-44.8-18.8-62.9-36.9c-56.5-56.5-56.5-148.1,0-204.6s148.1-56.5,204.6,0
				c18.1,18.1,30.4,39.9,36.9,62.9l22.3-16.7c11.6-8.6,26.6-9.7,39.1-3.6c-9.6-32.3-27.1-62.8-52.6-88.3
				C291.4-4.4,159-4.4,77.3,77.3s-81.7,214.1,0,295.8c25.5,25.5,56,43.1,88.3,52.6C159.4,413.3,160.5,398.3,169.1,386.7z"/>
		</g>
	</g>
	<path class="st1" d="M326.3,342.9l-2.2-2.2c-1.2-1.2-1.2-3.2,0-4.5l12.1-12.1c1.2-1.2,3.2-1.2,4.5,0l2.2,2.2c1.2,1.2,1.2,3.2,0,4.5
		l-12.1,12.1C329.6,344.1,327.6,344.1,326.3,342.9z"/>
	<path class="st1" d="M309.4,332.6l-1.3-1.3c-1.5-1.5-1.5-3.8,0-5.3l17.9-17.9c1.5-1.5,3.8-1.5,5.3,0l1.3,1.3c1.5,1.5,1.5,3.8,0,5.3
		l-17.9,17.9C313.2,334,310.8,334,309.4,332.6z"/>
	<path class="st1" d="M292.4,322.3l-0.6-0.6c-1.7-1.7-1.7-4.3,0-6l23.8-23.8c1.7-1.7,4.3-1.7,6,0l0.6,0.6c1.7,1.7,1.7,4.3,0,6
		l-23.8,23.8C296.8,323.9,294.1,323.9,292.4,322.3z"/>
	<path class="st1" d="M275.5,312L275.5,312c-1.8-1.8-1.8-4.8,0-6.6l29.8-29.8c1.8-1.8,4.8-1.8,6.6,0h0c1.8,1.8,1.8,4.8,0,6.6
		L282.2,312C280.3,313.8,277.4,313.8,275.5,312z"/>
	<path class="st1" d="M259,302.1L259,302.1c-1.8-1.8-1.8-4.8,0-6.6l36.5-36.5c1.8-1.8,4.8-1.8,6.6,0l0,0c1.8,1.8,1.8,4.8,0,6.6
		l-36.5,36.5C263.8,303.9,260.8,303.9,259,302.1z"/>
	<path class="st1" d="M242.4,292.1L242.4,292.1c-1.8-1.8-1.8-4.8,0-6.6l43.1-43.1c1.8-1.8,4.8-1.8,6.6,0v0c1.8,1.8,1.8,4.8,0,6.6
		L249,292.1C247.2,293.9,244.2,293.9,242.4,292.1z"/>
	<path class="st1" d="M225.8,282.2L225.8,282.2c-1.8-1.8-1.8-4.8,0-6.6l49.7-49.7c1.8-1.8,4.8-1.8,6.6,0v0c1.8,1.8,1.8,4.8,0,6.6
		l-49.7,49.7C230.6,284,227.7,284,225.8,282.2z"/>
	<path class="st1" d="M384.9,441.3L384.9,441.3c-1.8-1.8-1.8-4.8,0-6.6l49.7-49.7c1.8-1.8,4.8-1.8,6.6,0l0,0c1.8,1.8,1.8,4.8,0,6.6
		l-49.7,49.7C389.7,443.1,386.8,443.1,384.9,441.3z"/>
	<path class="st1" d="M375,424.7L375,424.7c-1.8-1.8-1.8-4.8,0-6.6l43.1-43.1c1.8-1.8,4.8-1.8,6.6,0l0,0c1.8,1.8,1.8,4.8,0,6.6
		l-43.1,43.1C379.8,426.5,376.8,426.5,375,424.7z"/>
	<path class="st1" d="M365,408.1L365,408.1c-1.8-1.8-1.8-4.8,0-6.6l36.5-36.5c1.8-1.8,4.8-1.8,6.6,0l0,0c1.8,1.8,1.8,4.8,0,6.6
		l-36.5,36.5C369.8,410,366.9,410,365,408.1z"/>
	<path class="st1" d="M355.1,391.6L355.1,391.6c-1.8-1.8-1.8-4.8,0-6.6l29.8-29.8c1.8-1.8,4.8-1.8,6.6,0l0,0c1.8,1.8,1.8,4.8,0,6.6
		l-29.8,29.8C359.9,393.4,356.9,393.4,355.1,391.6z"/>
	<path class="st1" d="M345.5,375.3l-0.6-0.6c-1.7-1.7-1.7-4.3,0-6l23.8-23.8c1.7-1.7,4.3-1.7,6,0l0.6,0.6c1.7,1.7,1.7,4.3,0,6
		l-23.8,23.8C349.8,377,347.1,377,345.5,375.3z"/>
	<path class="st1" d="M335.9,359.1l-1.3-1.3c-1.5-1.5-1.5-3.8,0-5.3l17.9-17.9c1.5-1.5,3.8-1.5,5.3,0l1.3,1.3c1.5,1.5,1.5,3.8,0,5.3
		l-17.9,17.9C339.7,360.5,337.3,360.5,335.9,359.1z"/>
</g>
</svg>
