<?xml version="1.0" encoding="utf-8"?>
<!-- Generator: Adobe Illustrator 23.0.1, SVG Export Plug-In . SVG Version: 6.00 Build 0)  -->
<svg version="1.1" id="Layer_1" xmlns="http://www.w3.org/2000/svg" xmlns:xlink="http://www.w3.org/1999/xlink" x="0px" y="0px"
	 viewBox="0 0 512 512" style="enable-background:new 0 0 512 512;" xml:space="preserve">
<g>
	<g>
		<path d="M174.4,440.9l62.2,62.1c10.7,10.7,27.6,12,39.6,3l31.9-23.8L195.2,369.5l-23.8,31.9C162.4,413.3,163.7,430.2,174.4,440.9z
			"/>
		<path d="M266.3,325.9l-21.8,15l92.1,92.1l15-21.8c1.4-2,1.1-4.7-0.6-6.4l-78.2-78.2C271,324.7,268.3,324.5,266.3,325.9z"/>
		<path d="M211.8,329.3L194,347.1c-2,2-1.9,5.2,0,7.1l129.2,129.2c2,2,5.2,2,7.1,0l17.7-17.7c2-2,1.9-5.2,0-7.1L218.9,329.4
			C216.9,327.4,213.7,327.4,211.8,329.3z"/>
		<path d="M401.3,171.3l-31.9,23.8L482.3,308l23.8-31.9c8.9-12,7.6-28.8-3-39.6L441,174.3C430.2,163.7,413.3,162.4,401.3,171.3z"/>
		<path d="M326.5,272.7l78.2,78.2c1.7,1.7,4.4,2,6.4,0.6l21.8-15l-92.1-92.1l-15,21.8C324.5,268.3,324.7,271,326.5,272.7z"/>
		<path d="M329.4,218.9l129.2,129.2c2,2,5.2,2,7.1,0l17.7-17.7c2-2,1.9-5.2,0-7.1L354.2,194.1c-2-2-5.2-2-7.1,0l-17.7,17.7
			C327.4,213.7,327.4,216.9,329.4,218.9z"/>
		<g>
			<path d="M163.3,395.4l17.8-23.8c-24.6-6.9-47.7-20-67.1-39.4C53.8,272,53.8,174.3,114,114s157.9-60.3,218.2,0
				c19.3,19.3,32.4,42.5,39.4,67.1l23.8-17.8c12.4-9.2,28.4-10.3,41.7-3.8c-10.2-34.5-28.9-67-56.1-94.2
				c-87.1-87.1-228.4-87.1-315.6,0s-87.1,228.4,0,315.6c27.2,27.2,59.7,45.9,94.2,56.1C153,423.8,154.1,407.8,163.3,395.4z"/>
		</g>
	</g>
	<path d="M331,348.7l-2.3-2.3c-1.3-1.3-1.3-3.5,0-4.8l12.9-12.9c1.3-1.3,3.5-1.3,4.8,0l2.3,2.3c1.3,1.3,1.3,3.5,0,4.8l-12.9,12.9
		C334.5,350,332.3,350,331,348.7z"/>
	<path d="M312.9,337.7l-1.4-1.4c-1.6-1.6-1.6-4.1,0-5.6l19.1-19.1c1.6-1.6,4.1-1.6,5.6,0l1.4,1.4c1.6,1.6,1.6,4.1,0,5.6l-19.1,19.1
		C317,339.2,314.5,339.2,312.9,337.7z"/>
	<path d="M294.9,326.7l-0.7-0.7c-1.8-1.8-1.8-4.6,0-6.4l25.4-25.4c1.8-1.8,4.6-1.8,6.4,0l0.7,0.7c1.8,1.8,1.8,4.6,0,6.4l-25.4,25.4
		C299.5,328.4,296.6,328.4,294.9,326.7z"/>
	<path d="M276.8,315.7L276.8,315.7c-2-2-2-5.1,0-7.1l31.8-31.8c2-2,5.1-2,7.1,0l0,0c2,2,2,5.1,0,7.1l-31.8,31.8
		C282,317.7,278.8,317.7,276.8,315.7z"/>
	<path d="M259.2,305.1L259.2,305.1c-2-2-2-5.1,0-7.1l38.9-38.9c2-2,5.1-2,7.1,0l0,0c2,2,2,5.1,0,7.1l-38.9,38.9
		C264.3,307.1,261.1,307.1,259.2,305.1z"/>
	<path d="M241.5,294.5L241.5,294.5c-2-2-2-5.1,0-7.1l46-46c2-2,5.1-2,7.1,0l0,0c2,2,2,5.1,0,7.1l-46,46
		C246.6,296.5,243.4,296.5,241.5,294.5z"/>
	<path d="M223.8,283.9L223.8,283.9c-2-2-2-5.1,0-7.1l53-53c2-2,5.1-2,7.1,0l0,0c2,2,2,5.1,0,7.1l-53,53
		C228.9,285.9,225.8,285.9,223.8,283.9z"/>
	<path d="M393.5,453.6L393.5,453.6c-2-2-2-5.1,0-7.1l53-53c2-2,5.1-2,7.1,0l0,0c2,2,2,5.1,0,7.1l-53,53
		C398.6,455.6,395.5,455.6,393.5,453.6z"/>
	<path d="M382.9,435.9L382.9,435.9c-2-2-2-5.1,0-7.1l46-46c2-2,5.1-2,7.1,0l0,0c2,2,2,5.1,0,7.1l-46,46
		C388,437.9,384.9,437.9,382.9,435.9z"/>
	<path d="M372.3,418.3L372.3,418.3c-2-2-2-5.1,0-7.1l38.9-38.9c2-2,5.1-2,7.1,0l0,0c2,2,2,5.1,0,7.1l-38.9,38.9
		C377.4,420.2,374.3,420.2,372.3,418.3z"/>
	<path d="M361.7,400.6L361.7,400.6c-2-2-2-5.1,0-7.1l31.8-31.8c2-2,5.1-2,7.1,0l0,0c2,2,2,5.1,0,7.1l-31.8,31.8
		C366.8,402.5,363.7,402.5,361.7,400.6z"/>
	<path d="M351.4,383.2l-0.7-0.7c-1.8-1.8-1.8-4.6,0-6.4l25.4-25.4c1.8-1.8,4.6-1.8,6.4,0l0.7,0.7c1.8,1.8,1.8,4.6,0,6.4l-25.4,25.4
		C356.1,385,353.2,385,351.4,383.2z"/>
	<path d="M341.2,365.9l-1.4-1.4c-1.6-1.6-1.6-4.1,0-5.6l19.1-19.1c1.6-1.6,4.1-1.6,5.6,0l1.4,1.4c1.6,1.6,1.6,4.1,0,5.6l-19.1,19.1
		C345.3,367.5,342.8,367.5,341.2,365.9z"/>
</g>
</svg>
